<?xml version="1.0" encoding="iso-8859-1"?>
<!-- Generator: Adobe Illustrator 24.1.2, SVG Export Plug-In . SVG Version: 6.00 Build 0)  -->
<svg version="1.1" baseProfile="basic" id="Layer_1"
	 xmlns="http://www.w3.org/2000/svg" xmlns:xlink="http://www.w3.org/1999/xlink" x="0px" y="0px" viewBox="0 0 50 50"
	 xml:space="preserve">
<path d="M26.53,5.099c0.622-0.215,1.301-0.036,1.871,0.245c0.398,0.256,0.796,0.515,1.242,0.683
	c0.034,0.064,0.105,0.191,0.139,0.254c-0.018,0.042-0.052,0.13-0.07,0.172c0.318,0.723,0.521,1.579,0.213,2.338
	c-0.21,0.256-0.575,0.296-0.871,0.395c-0.001,0.367,0.057,0.73,0.089,1.094c0.633,0.102,1.168-0.338,1.794-0.295
	c0.085-0.35,0.151-0.707,0.263-1.05c0.13,0.228,0.135,0.49,0.136,0.746c0.164,0.046,0.33,0.089,0.497,0.129
	c0.002,0.063,0.003,0.188,0.003,0.251c2.744,0.016,5.486-0.012,8.229,0.015c-0.007,0.094-0.02,0.282-0.026,0.376
	c0.071,0,0.215,0.001,0.287,0.001c-0.003-0.499,0-1-0.001-1.498c0.07-0.003,0.206-0.007,0.274-0.008
	c0.002,0.393,0.003,0.785,0.007,1.178c0.06,0.074,0.18,0.221,0.24,0.294c0.045-0.053,0.135-0.158,0.18-0.211
	c0.209,0.195,0.09,0.462,0.081,0.702c0.768-0.008,1.543,0.043,2.309-0.019c0.057-0.042,0.172-0.125,0.229-0.168
	c0.105,0.041,0.211,0.082,0.316,0.124c0.345-0.008,0.691-0.01,1.038-0.011c-0.007,0.179-0.013,0.357-0.019,0.536
	c-0.446-0.007-0.893-0.016-1.332,0.06c-0.284-0.244-0.664-0.166-1.006-0.176c-0.526,0.025-1.069-0.068-1.579,0.099
	c-0.303,0.085-0.635,0.064-0.903-0.108c-0.064,0.16,0.034,0.517-0.235,0.503c-1.058,0.014-2.115-0.009-3.172,0.007
	c-0.145,0.076-0.29,0.149-0.435,0.219c-0.153,0.455-0.59,0.759-0.963,1.038c-0.046,0.7,0.23,1.353,0.338,2.032
	c-0.209,0.06-0.419,0.121-0.625,0.19c-0.296,0.698-0.115,1.651-0.799,2.138c-0.525,0.305-0.872,0.969-1.58,0.865l0,0
	c-1.28-0.113-2.409-0.899-3.522-1.471c-0.052,0.313-0.133,0.622-0.218,0.929c0.423,0.08,0.772,0.391,0.847,0.825
	c0.135,0.945-0.135,1.883-0.131,2.831c0.03,0.556-0.209,1.066-0.506,1.52c-0.26,0.295-0.671-0.008-0.983-0.052
	c-0.071,0.138-0.14,0.276-0.209,0.415c0.089,0.371,0.127,0.757,0.251,1.119c0.697,0.77,1.331,1.605,1.818,2.525
	c0.501,1.042,0.948,2.11,1.338,3.199c0.038,0.211,0.237,0.287,0.412,0.364c0.023,0.218,0.046,0.436,0.068,0.657
	c0.068,0.1,0.138,0.199,0.209,0.3c0.042,1.345-0.123,2.684-0.332,4.01c-0.129,0.599,0.221,1.184,0.079,1.786
	c0.016,0.309-0.196,0.542-0.296,0.814c-0.019,0.637-0.05,1.282,0.019,1.917c0.049,0.466,0.443,0.766,0.71,1.114
	c0.292,0.31,0.536,0.725,0.978,0.836c0.416,0.124,0.813,0.304,1.179,0.54c0.112,0.277,0.091,0.57,0.038,0.858
	c-0.799,0.147-1.614,0.074-2.422,0.086c-0.622,0.033-1.177-0.301-1.781-0.371c-0.585-0.015-1.298,0.276-1.748-0.248
	c0.191-0.727,0.206-1.507,0.555-2.185c0.112-0.768-0.101-1.546-0.056-2.321c-0.067-0.056-0.2-0.168-0.267-0.224
	c0.048-0.506-0.202-0.956-0.285-1.44c-0.054-0.707-0.119-1.413-0.2-2.116c-0.064-0.342,0.113-0.656,0.355-0.883
	c0.022-0.395,0.075-0.787,0.113-1.179c-0.059-0.255-0.262-0.445-0.393-0.663c-0.438,0.184-1.028,0.097-1.289-0.331
	c-0.618-0.919-1.234-1.838-1.859-2.752c-0.245-0.016-0.505,0.01-0.734-0.089c-0.264-0.271-0.402-0.633-0.571-0.963
	c-0.241,0.271-0.224,0.687-0.51,0.934c-0.605,0.581-0.766,1.435-1.083,2.179c-0.242,0.483-0.106,1.065-0.376,1.535
	c-0.145,0.253-0.507,0.304-0.603,0.593c-0.125,0.312-0.273,0.635-0.566,0.825c-0.318,0.208-0.402,0.604-0.544,0.931
	c-0.13,0.301,0.063,0.618,0.018,0.927c-0.202,0.983-0.828,1.805-1.091,2.768c-0.12,0.434-0.292,0.922-0.796,1.014
	c-0.574,1.025-0.89,2.28-0.566,3.435c0.199,0.363,0.188,0.77,0.127,1.17c-0.912,0.071-1.848,0.194-2.743-0.061
	c-0.21-0.416-0.18-0.906-0.136-1.355c0.277-1.182,0.644-2.344,0.868-3.539c-0.281-0.25-0.215-0.631-0.21-0.965
	c-0.009-0.623,0.415-1.122,0.709-1.634c0.111-0.525,0.059-1.089,0.33-1.571c0.319-0.603,0.589-1.254,1.081-1.741
	c0.094-0.43,0.411-0.754,0.538-1.167c0.136-0.365-0.102-0.736-0.054-1.11c0.117-1.133,0.323-2.256,0.502-3.38
	c-0.338-0.282-0.229-0.731-0.337-1.111c0.053-0.15,0.12-0.293,0.2-0.432c-0.085-0.078-0.168-0.157-0.252-0.234
	c0.082-0.4,0.059-1.116,0.672-0.986c0.038-1.324-0.421-2.606-0.267-3.931c0.05-0.047,0.2-0.16,0.2-0.16
	c0.256-0.136,0.529-0.241,0.815-0.295c-0.466-0.061-0.92-0.18-1.377-0.286c-0.11-0.291-0.049-0.6-0.008-0.897
	c0.177-1.004,0.243-2.021,0.28-3.038c0.517-0.18,1.087-0.027,1.591-0.267c-0.157-1.272-0.196-2.6,0.256-3.821
	c0.364-1.039,1.06-2.041,2.145-2.407c0.513-0.123,1.158-0.26,1.52,0.237c0.1-0.091,0.199-0.185,0.299-0.277
	C23.664,7.839,24.652,5.437,26.53,5.099 M33.153,12.228c-0.218,0.134-0.432,0.286-0.203,0.529c-0.112,0.067-0.224,0.131-0.337,0.192
	c-0.177,0.136-0.575,0.214-0.529,0.49c0.199,0.32,0.371,0.656,0.513,1.005c0.435-0.357,0.781-0.837,1.016-1.346
	c0.049-0.05,0.149-0.151,0.198-0.201c-0.022-0.233-0.074-0.461-0.165-0.676C33.482,12.224,33.317,12.227,33.153,12.228
	L33.153,12.228z"/>
<path d="M46,25h-8.231v-2H46c0.552,0,1-0.448,1-1c0-1.105-0.895-2-2-2h-8c-1.105,0-2,0.895-2,2v4c0,1.105,0.895,2,2,2h7v2h-8
	c-0.552,0-1,0.448-1,1c0,1.105,0.895,2,2,2h8c1.105,0,2-0.895,2-2v-5C47,25.448,46.552,25,46,25z"/>
<path d="M14,30H6v-7h8c0.552,0,1-0.448,1-1c0-1.105-0.895-2-2-2H5c-1.105,0-2,0.895-2,2v9c0,1.105,0.895,2,2,2h8
	c1.105,0,2-0.895,2-2C15,30.448,14.552,30,14,30z"/>
</svg>